<svg width="694" height="427" viewBox="0 0 694 427" fill="none" xmlns="http://www.w3.org/2000/svg">
<path d="M194.184 295.832C194.089 296.09 193.802 296.223 193.543 296.128C193.284 296.033 193.15 295.746 193.245 295.488L300.652 2.10826C300.746 1.84955 301.033 1.71678 301.293 1.81172C301.552 1.90665 301.685 2.19334 301.591 2.45205L194.184 295.832Z" fill="black"/>
<path d="M279.5 295.157C279.776 295.157 280 295.381 280 295.657C280 295.933 279.776 296.157 279.5 296.157H193.5C193.224 296.157 193 295.933 193 295.657C193 295.381 193.224 295.157 193.5 295.157H279.5Z" fill="black"/>
<path d="M280.159 295.819C280.075 296.081 279.793 296.225 279.531 296.141C279.268 296.056 279.123 295.775 279.208 295.512L307.847 206.632C307.931 206.37 308.213 206.226 308.476 206.31C308.739 206.395 308.883 206.676 308.799 206.939L280.159 295.819Z" fill="black"/>
<path d="M422.491 423.939C422.62 424.184 422.525 424.486 422.28 424.614C422.036 424.742 421.733 424.647 421.605 424.402L307.958 207.076C307.83 206.831 307.924 206.529 308.169 206.401C308.414 206.273 308.716 206.368 308.844 206.613L422.491 423.939Z" fill="black"/>
<path d="M422.53 424.389C422.403 424.633 422.101 424.726 421.857 424.598C421.612 424.47 421.517 424.169 421.644 423.926L534.44 208.229C534.567 207.986 534.868 207.892 535.113 208.02C535.357 208.148 535.453 208.449 535.326 208.692L422.53 424.389Z" fill="black"/>
<path d="M607.5 425.489C607.586 425.749 607.444 426.03 607.182 426.117C606.919 426.204 606.637 426.063 606.551 425.804L534.512 208.699C534.425 208.439 534.568 208.158 534.83 208.071C535.092 207.984 535.375 208.124 535.461 208.384L607.5 425.489Z" fill="black"/>
<path d="M693.5 425.157C693.776 425.157 694 425.381 694 425.657C694 425.933 693.776 426.157 693.5 426.157H607.5C607.224 426.157 607 425.933 607 425.657C607 425.381 607.224 425.157 607.5 425.157H693.5Z" fill="black"/>
<path d="M693.83 425.503C693.922 425.763 693.785 426.048 693.524 426.14C693.264 426.232 692.978 426.095 692.887 425.835L543.478 1.51557C543.387 1.25556 543.524 0.970423 543.784 0.878709C544.045 0.786995 544.33 0.923431 544.422 1.18345L693.83 425.503Z" fill="black"/>
<path d="M422.512 240.394C422.387 240.638 422.087 240.735 421.841 240.609C421.595 240.484 421.497 240.184 421.621 239.939L543.492 1.15222C543.617 0.907612 543.917 0.811083 544.163 0.936615C544.409 1.06215 544.508 1.3622 544.383 1.60681L422.512 240.394Z" fill="black"/>
<path d="M422.459 239.854C422.584 240.099 422.485 240.399 422.239 240.524C421.993 240.649 421.692 240.552 421.568 240.307L300.679 2.49277C300.555 2.24793 300.653 1.94802 300.899 1.82289C301.146 1.69775 301.446 1.79479 301.57 2.03962L422.459 239.854Z" fill="black"/>
<path d="M113.196 346.798C113.101 347.057 112.814 347.19 112.555 347.095C112.296 347.001 112.162 346.713 112.257 346.454L238.828 0.626136C238.923 0.366991 239.21 0.233852 239.47 0.328761C239.729 0.423671 239.862 0.710689 239.767 0.969834L113.196 346.798Z" fill="black"/>
<path d="M239.5 0.156921C239.776 0.156921 240 0.380779 240 0.656921C240 0.933064 239.776 1.15692 239.5 1.15692H156.5C156.224 1.15692 156 0.933064 156 0.656921C156 0.380779 156.224 0.156921 156.5 0.156921H239.5Z" fill="black"/>
<path d="M155.821 0.469318C155.916 0.210118 156.203 0.076986 156.462 0.171942C156.721 0.266898 156.855 0.553984 156.76 0.813184L1.17185 425.688C1.07694 425.947 0.789786 426.08 0.530483 425.985C0.271181 425.89 0.137917 425.603 0.232832 425.344L155.821 0.469318Z" fill="black"/>
<path d="M312.5 346.157C312.776 346.157 313 346.381 313 346.657C313 346.933 312.776 347.157 312.5 347.157H113.5C113.224 347.157 113 346.933 113 346.657C113 346.381 113.224 346.157 113.5 346.157H312.5Z" fill="black"/>
<path d="M351.749 425.415C351.871 425.663 351.77 425.963 351.522 426.085C351.275 426.207 350.975 426.105 350.852 425.857L312.222 347.606C312.099 347.358 312.201 347.058 312.448 346.936C312.696 346.813 312.996 346.915 313.118 347.163L351.749 425.415Z" fill="black"/>
<path d="M351.001 425.157C351.276 425.157 351.5 425.381 351.5 425.657C351.5 425.933 351.276 426.157 351.001 426.157L0.49929 426.157C0.22354 426.157 0 425.933 0 425.657C0 425.381 0.22354 425.157 0.49929 425.157L351.001 425.157Z" fill="black"/>
</svg>